<?xml version="1.0" encoding="utf-8"?>
<!-- Generator: Adobe Illustrator 22.1.0, SVG Export Plug-In . SVG Version: 6.00 Build 0)  -->
<svg version="1.1" id="_x34_771386c-1c5b-4872-9ac2-486c3b56cfa9"
	 xmlns="http://www.w3.org/2000/svg" xmlns:xlink="http://www.w3.org/1999/xlink" x="0px" y="0px" viewBox="0 0 862.8 574"
	 style="enable-background:new 0 0 862.8 574;" xml:space="preserve">
<style type="text/css">
	.st0{fill:url(#SVGID_1_);}
	.st1{fill:#6C63FF;}
	.st2{fill:#F55F44;}
	.st3{fill:#FDA57D;}
	.st4{opacity:5.000000e-02;enable-background:new    ;}
	.st5{opacity:0.7;}
	.st6{fill:url(#SVGID_2_);}
	.st7{fill:#4DB6AC;}
	.st8{opacity:0.6;fill:none;stroke:#535461;stroke-miterlimit:10;enable-background:new    ;}
	.st9{fill:url(#SVGID_3_);}
	.st10{opacity:0.1;enable-background:new    ;}
	.st11{fill:#E0E0E0;}
	.st12{fill:url(#SVGID_4_);}
	.st13{fill:#535461;}
	.st14{fill:#FFFFFF;}
	.st15{fill:#EEEEEE;}
	.st16{opacity:0.1;fill:#535461;enable-background:new    ;}
	.st17{fill:none;}
	.st18{fill:#50667D;}
	.st19{fill:#EBEAD1;}
	.st20{fill:#D8D8D0;}
	.st21{fill:#C0C5C3;}
	.st22{fill:#E7E6CA;}
	.st23{fill:#9AAAAF;}
	.st24{fill:#4C4C4D;}
	.st25{fill:#6B6D6B;}
	.st26{fill:#BFC4C2;}
	.st27{fill:#B4BEB4;}
	.st28{fill:#BEC3C1;}
	.st29{fill:#BFC4C3;}
	.st30{fill:#BDC2C1;}
	.st31{fill:#3B3C3E;}
	.st32{fill:#BEC4C2;}
	.st33{fill:#404143;}
	.st34{fill:#BCC1C0;}
	.st35{fill:#454647;}
	.st36{fill:#3F4041;}
	.st37{fill:#3A3B3D;}
	.st38{fill:#4D4E4E;}
	.st39{fill:#E6E6DD;}
	.st40{fill:#6A7C90;}
	.st41{fill:#E5E5DC;}
	.st42{fill:#2A445D;}
	.st43{fill:#B3CDE9;}
	.st44{fill:#22D5DB;}
	.st45{fill:#FB6C3B;}
	.st46{fill:#FCC541;}
	.st47{fill:#E2E6EA;}
	.st48{fill:#E3E7EA;}
	.st49{fill:#E7EAED;}
	.st50{fill:#EDEFF2;}
	.st51{fill:#FAF9E4;}
	.st52{fill:#83847E;}
	.st53{fill:#36373A;}
	.st54{fill:#F4F3DC;}
	.st55{fill:#B5CEE9;}
	.st56{fill:#E0EEF7;}
	.st57{fill:#A7C1DE;}
	.st58{fill:#A8C1DE;}
	.st59{fill:#38393C;}
	.st60{fill:#434348;}
	.st61{fill:#FCD45A;}
	.st62{fill:#CFDEEA;}
	.st63{fill:#C1D8E4;}
	.st64{fill:#C8E1ED;}
	.st65{fill:#45D9E2;}
	.st66{fill:#F6F9FA;}
	.st67{fill:#FAFDFD;}
	.st68{fill:#FCFAF9;}
</style>
<title>organizing projects1</title>
<linearGradient id="SVGID_1_" gradientUnits="userSpaceOnUse" x1="491.775" y1="-73.0899" x2="491.775" y2="300.2501" gradientTransform="matrix(1 0 0 -1 -168.58 413)">
	<stop  offset="0" style="stop-color:#808080;stop-opacity:0.25"/>
	<stop  offset="0.54" style="stop-color:#808080;stop-opacity:0.12"/>
	<stop  offset="1" style="stop-color:#808080;stop-opacity:0.1"/>
</linearGradient>
<path class="st0" d="M423.9,396.5c-6.7-24.3-43.9-42.2-72.9-46.9v-11.7l1.6-0.6c-0.2-2.3-0.6-4.6-1.4-6.8
	c12.4-5.1,23.1-13.5,30.9-24.5c30.3-31.7,29.1-81.9-2.6-112.2c-4-3.8-8.4-7.2-13.1-10.1c7.3-4.6,9.5-14.2,4.9-21.5
	c-2.6-4.1-7-6.8-11.9-7.2c6.5-15.5-0.7-33.3-16.1-39.8c-10.4-4.4-22.4-2.7-31.2,4.5c14.8-7.9,33.2-2.3,41.1,12.5
	c2.3,4.4,3.6,9.3,3.6,14.3c0,0.3,0,0.5,0,0.8c-0.5-16.8-14.5-30-31.3-29.5s-30,14.5-29.5,31.3c0.1,3.3,0.7,6.5,1.9,9.6
	c-8.2,1.8-13.4,9.8-11.7,18c0.3,1.5,0.9,2.9,1.6,4.3c-38.8,20.4-53.7,68.4-33.3,107.2c3.7,7,8.4,13.4,13.9,19
	c7.4,9.9,17.3,17.8,28.6,22.7v19.5c-29.3,4.2-67.9,22.4-74.7,47.3c-5.9,21.7-12.2,45.5-15.3,59.5c26.8,18.8,82.9,29.9,118.1,29.9
	c33.5,0,88.1-10,114.1-27.1C436.5,443.6,430.1,418.7,423.9,396.5z M370.3,171.9c0,0.3,0,0.5,0,0.8c-0.4-7.1-5.6-12.9-12.6-14.1
	c0.3-0.5,0.6-1,0.8-1.5C365.4,158.7,370.3,164.8,370.3,171.9z"/>
<path class="st1" d="M325.2,480.8c32.5,0,85.6-9.7,110.8-26.3c-2.7-14.9-9-39.1-15-60.8c-7.6-27.6-55.5-46.7-84.1-46.7h-27.5
	c-28.7,0-76.7,19.2-84.2,46.9c-5.7,21.1-11.8,44.3-14.8,57.9C236.4,470,291,480.8,325.2,480.8z"/>
<circle class="st2" cx="324.7" cy="252.6" r="77.1"/>
<path class="st3" d="M303.9,306.2h40.3c3.3,0,6,2.7,6,6v41.2c0,13.7-11.1,24.8-24.8,24.8h-2.9c-13.7,0-24.8-11.1-24.8-24.8v-41.2
	C297.8,308.9,300.5,306.2,303.9,306.2L303.9,306.2z"/>
<path class="st4" d="M326.4,341.1c8.7,0,17.3-1.7,25.3-4.9c-0.9-13.2-11.8-23.4-25-23.5h-2.1c-13,0-23.8,9.9-25,22.9
	C308.1,339.2,317.2,341.1,326.4,341.1z"/>
<circle class="st3" cx="324.8" cy="266.3" r="68.2"/>
<circle class="st2" cx="301.7" cy="177.1" r="14.8"/>
<circle class="st2" cx="354.2" cy="177.1" r="14.8"/>
<circle class="st2" cx="326.3" cy="152.5" r="29.5"/>
<path class="st2" d="M357.5,159.1c-2.9,0-5.8,0.9-8.2,2.5c7.7-2.7,16.1,1.3,18.8,9c2.2,6.3-0.1,13.3-5.6,17.1
	c7.7-2.7,11.7-11.2,9-18.8C369.3,163,363.7,159.1,357.5,159.1L357.5,159.1z"/>
<path class="st2" d="M331.2,118.1c-6.9,0-13.5,2.4-18.8,6.7c14.4-7.7,32.3-2.2,39.9,12.2c6.6,12.4,3.5,27.7-7.3,36.7
	c14.4-7.6,19.9-25.5,12.2-39.9C352.1,124.1,342.1,118.1,331.2,118.1L331.2,118.1z"/>
<path class="st2" d="M275.5,205c0,0,8.2,54.1,111.5,24.6l-50.8-44.3L275.5,205z"/>
<g class="st5">
	
		<linearGradient id="SVGID_2_" gradientUnits="userSpaceOnUse" x1="211.1144" y1="-63.259" x2="291.8158" y2="-63.259" gradientTransform="matrix(1 0 0 -1 -168.58 413)">
		<stop  offset="0" style="stop-color:#808080;stop-opacity:0.25"/>
		<stop  offset="0.54" style="stop-color:#808080;stop-opacity:0.12"/>
		<stop  offset="1" style="stop-color:#808080;stop-opacity:0.1"/>
	</linearGradient>
	<path class="st6" d="M122.8,456.4c1.6-6.3-0.9-12.9-6.2-16.6c-1.4-0.8-2.8-1.7-4.2-2.7c-2-1.9-3.4-4.3-4.2-7
		c-2.1-6.3-2.7-13.3-6.4-19c-3.3-5.2-9.8-6.7-15.6-7.2c-2.1-0.3-4.2-0.1-6.2,0.6c-3.2,1.5-4.7,5.2-4.9,8.8s0.8,7,1,10.5
		s-0.4,7.4-3,9.8s-6.3,2.7-9.7,3.1c-4.5,0.6-8.9,1.7-13.2,3.3c-3.6,1.3-7.6,3.7-7.7,7.5c-0.1,3.1,2.4,5.6,4.3,8.1
		c3.7,4.6,5.1,10.6,4.1,16.5c-1.2,5.8-5.3,10.8-6,16.7c-0.3,1.5-0.1,3,0.5,4.3c0.6,0.9,1.3,1.7,2.2,2.4c2.2,1.7,4.7,3.1,6.8,4.9
		c4.4,3.9,6.7,9.5,8.6,15c0.2,0.5,0.3,1.1,0.5,1.6h-4.3c-8.8,0-15.9,7.1-15.9,15.9l0,0c0,8.8,7.1,15.9,15.9,15.9h42.9
		c8.8,0,15.9-7.1,15.9-15.9l0,0c-0.1-8.7-7.1-15.8-15.9-15.8H90.3c2.8-3.7,5.7-7.2,10-8.7s9.5-0.6,12.8-3.6c1.6-1.6,2.6-3.6,2.9-5.8
		c0.7-3.9,0-7.9-1.9-11.4c-1.4-2.4-3.3-4.6-3.8-7.3c-0.2-2.4,0.4-4.8,1.6-6.8C115.3,467.5,121,463,122.8,456.4z"/>
</g>
<path class="st7" d="M86.1,407.5c-2-0.3-4-0.1-5.9,0.5c-3.1,1.4-4.5,5-4.6,8.3s0.7,6.7,1,10s-0.4,7-2.8,9.3s-6,2.5-9.3,3
	c-4.3,0.6-8.5,1.6-12.6,3.1c-3.4,1.2-7.2,3.5-7.4,7.1c-0.1,3,2.3,5.3,4.1,7.7c3.5,4.4,4.9,10.1,3.9,15.7c-1.2,5.5-5,10.3-5.7,15.9
	c-0.3,1.4-0.1,2.9,0.6,4.2c0.5,0.9,1.3,1.7,2.1,2.3c2.1,1.6,4.5,2.9,6.4,4.7c4.2,3.7,6.4,9,8.1,14.3c1.7,5.2,3,10.5,4,15.9
	c3.6-2.3,8.2-2.3,12-4.2c8.1-4,10.9-15.5,19.5-18.4c4.1-1.4,9-0.6,12.2-3.4c1.5-1.5,2.5-3.4,2.8-5.5c0.7-3.7,0-7.6-1.8-10.9
	c-1.3-2.3-3.2-4.4-3.6-7c-0.2-2.3,0.3-4.5,1.5-6.5c3.1-5.6,8.5-10,10.2-16.2c1.5-6-0.9-12.3-5.9-15.8c-1.4-0.8-2.7-1.6-4-2.6
	c-1.9-1.8-3.3-4.1-4-6.7c-2-6-2.6-12.7-6.1-18C97.7,409.4,91.6,408,86.1,407.5z"/>
<path class="st8" d="M86,407.7c0,0,7.6,101.3-12.1,118.7"/>
<path class="st1" d="M59.5,515H102c7.9,0,14.3,6.4,14.3,14.3v1.6c0,7.9-6.4,14.3-14.3,14.3H59.5c-7.9,0-14.3-6.4-14.3-14.3v-1.6
	C45.2,521.4,51.6,515,59.5,515z"/>
<path class="st8" d="M44.4,447c0,0,19.3-2.3,42.9,12.1"/>
<path class="st8" d="M87,471.2c7.8-11.4,20.1-19.1,33.8-21.2"/>
<path class="st8" d="M46.4,488.2c0,0,26.8-4.5,39.1,3"/>
<path class="st8" d="M83.9,501.6c0,0,14-6.4,29.8-1.2"/>
<g class="st5">
	
		<linearGradient id="SVGID_3_" gradientUnits="userSpaceOnUse" x1="743.5575" y1="-132.81" x2="743.5575" y2="-71.8" gradientTransform="matrix(1 0 0 -1 -168.58 413)">
		<stop  offset="0" style="stop-color:#808080;stop-opacity:0.25"/>
		<stop  offset="0.54" style="stop-color:#808080;stop-opacity:0.12"/>
		<stop  offset="1" style="stop-color:#808080;stop-opacity:0.1"/>
	</linearGradient>
	<path class="st9" d="M595.1,495.7v-10.9h-54.5v50.4c0,5.9,4.8,10.6,10.6,10.6h33.2c5.9,0,10.6-4.8,10.6-10.6V524
		c7.8,0,14.2-6.3,14.2-14.2C609.3,502,603,495.7,595.1,495.7L595.1,495.7z M595.1,518.6v-17.4c4.8-0.2,8.8,3.6,9,8.4s-3.6,8.8-8.4,9
		C595.5,518.6,595.3,518.6,595.1,518.6L595.1,518.6z"/>
</g>
<path class="st1" d="M593.4,497.4c-7.1,0-12.9,5.8-12.9,12.9s5.8,12.9,12.9,12.9s12.9-5.8,12.9-12.9l0,0
	C606.3,503.2,600.6,497.4,593.4,497.4z M593.4,518.3c-4.4,0-8-3.6-8-8s3.6-8,8-8s8,3.6,8,8C601.4,514.7,597.8,518.3,593.4,518.3
	L593.4,518.3z"/>
<path class="st10" d="M593.4,497.4c-7.1,0-12.9,5.8-12.9,12.9s5.8,12.9,12.9,12.9s12.9-5.8,12.9-12.9l0,0
	C606.3,503.2,600.6,497.4,593.4,497.4z M593.4,518.3c-4.4,0-8-3.6-8-8s3.6-8,8-8s8,3.6,8,8C601.4,514.7,597.8,518.3,593.4,518.3
	L593.4,518.3z"/>
<path class="st1" d="M543.6,487.5h49.7l0,0v46c0,5.4-4.4,9.8-9.8,9.8l0,0h-30.2c-5.4,0-9.8-4.4-9.8-9.8l0,0V487.5L543.6,487.5z"/>
<rect y="543.2" class="st11" width="645.6" height="21.9"/>
<g class="st5">
	
		<linearGradient id="SVGID_4_" gradientUnits="userSpaceOnUse" x1="322.8" y1="32.84" x2="322.8" y2="190.94" gradientTransform="matrix(1 0 0 -1 0 576)">
		<stop  offset="0" style="stop-color:#808080;stop-opacity:0.25"/>
		<stop  offset="0.54" style="stop-color:#808080;stop-opacity:0.12"/>
		<stop  offset="1" style="stop-color:#808080;stop-opacity:0.1"/>
	</linearGradient>
	<path class="st12" d="M200,385.1h245.6c8,0,14.5,6.5,14.5,14.5v129.1c0,8-6.5,14.5-14.5,14.5H200c-8,0-14.5-6.5-14.5-14.5V399.6
		C185.5,391.6,192,385.1,200,385.1z"/>
</g>
<path class="st13" d="M217.3,388h210.9c14.8,0,26.8,12,26.8,26.8v101.5c0,14.8-12,26.8-26.8,26.8H217.3c-14.8,0-26.8-12-26.8-26.8
	V414.8C190.5,400,202.5,388,217.3,388z"/>
<circle class="st14" cx="322.8" cy="465.6" r="9"/>
<rect x="27.4" y="565" class="st11" width="590.9" height="9"/>
<rect x="27.4" y="565" class="st10" width="590.9" height="3"/>
<path class="st10" d="M584.4,487.5v46c0,5.4-4.3,9.7-9.7,9.7l0,0h5c5.4,0,9.7-4.3,9.7-9.7l0,0v-46H584.4z"/>
<path class="st15" d="M553.4,450.4c-0.9,0-1.7,0.4-2.2,1.1c-0.7,1.2,0.5,2.5,1.6,3.3c2,1.5,4.1,3,5.5,5.1s1.8,5,0.3,7
	c-1.9,2.6-6.5,3.2-7,6.4c-0.3,2.1,1.5,3.8,3.3,4.9c4.5,2.6,10.3,3.3,13.5,7.3c1.3-2.8,4.3-4.4,7.3-5s6.1-0.6,9.1-1.1
	c1,0,2-0.5,2.5-1.4c0.8-1.7-1.6-3.8-0.7-5.5c0.6-1.3,2.5-1.2,3.9-1.7c2.2-0.9,3.1-3.7,2.5-6s-2.4-4.1-4.3-5.6c-5-4-11.1-6.3-17.2-8
	c-2.8-0.8-6.2-2-9.2-2.1S556.3,449.9,553.4,450.4z"/>
<rect x="428.4" class="st16" width="434.5" height="297.7"/>
<circle class="st16" cx="469.4" cy="366.1" r="12.2"/>
<circle class="st16" cx="492.1" cy="326.8" r="12.2"/>
<g>
	<path class="st17" d="M673.2,245.2C673.2,245.2,673.2,245.2,673.2,245.2C673.2,245.2,673.2,245.2,673.2,245.2
		C673.2,245.2,673.2,245.2,673.2,245.2z"/>
	<polygon class="st17" points="671.8,246 671.8,246 671.8,246 	"/>
	<path class="st17" d="M671.7,245.9l0.1,0c0-0.1,0-0.1,0-0.2C671.8,245.8,671.8,245.9,671.7,245.9z"/>
	<path class="st18" d="M548,164.5c0,0-0.1,0-0.1,0c0.1,0.2,0,0.4-0.1,0.6C547.9,165,548,164.7,548,164.5
		C548,164.5,548,164.5,548,164.5z"/>
	<path class="st18" d="M574.9,86.9C574.9,86.9,574.9,86.9,574.9,86.9C574.9,86.9,574.9,86.9,574.9,86.9
		C574.9,86.9,574.9,86.9,574.9,86.9z"/>
	<path class="st18" d="M576.7,129.6c-2.9,1.8-6.4,1-9.4,2.3c-1.1,0.5-2.4,0.6-3.6,1c-5.3-1.1-10.6-1.7-15.8,0.8
		c-1.9,0.7-3.7,1.5-5.6,2.2c-0.8,0.5-2.9,0.6-0.4,1.8c1.1,0.5,2.3,1,2.9,2.2c0.3,1.2-0.1,2.3-0.7,3.4c-2,1.8-4.5,1.7-6.9,2.1
		c-0.3,0.1-0.7,0-1,0c0.3,0.1,0.7,0,1,0.1c2.3,0.2,4.5,0.5,6.6,1.5c0.9,1,1.3,2.1,1.1,3.4c-0.8,2.1-3,2.5-4.8,3.5
		c1.5,0.8,2.9,1.1,4.2,1.7c6.2,3,12.6,3.8,19.3,2c2.8,1.2,5.9,1.5,8.8,2.4c0.9,0.3,2.4,0.2,1.9,1.7c0.1,0,0.1,0,0.2,0
		c2.4-2.2,5.2-0.8,7.8-0.9c1.5,0,3.2,0.2,4.7,0.3c1.8,0.4,3.5,0.2,5.2-0.3c1-0.1,2,0,2.7,0.8c0,0,0.1,0,0.1,0
		c-0.6-1.1,0.7-1.4,1.5-1.8c2.4-1,4.9-1.6,7.3-2.8c4.5-1.6,7.5-4.9,10.3-8.6c0.5-0.8,1.1-1.5,1.4-2.3c0.7-1.5,0-2.7-0.7-3.8
		c-2.8-4.1-6-7.8-10.7-9.7c-3-1.5-6.3-1.8-9.6-1.9c-5.3-0.1-10.7,0.7-16-0.5c-0.3-0.2-0.6-0.4-0.7-0.7
		C577.4,129.5,577.1,129.5,576.7,129.6C576.7,129.5,576.7,129.5,576.7,129.6z"/>
	<path class="st18" d="M651.9,259.6c0-1.6,0-3.2,0-4.8h0l0,0c0-1.5-0.1-3-0.1-4.4c0-56.9-0.1-113.9,0.1-170.8c0-8.2-1.2-15.4-6.2-22
		c-1.6-2.1-2.9-2.9-5.5-2.9c-26,0.1-52,0.1-78.1,0.1c-17.3,0-34.7,0-52,0c-1.4,0-3-0.4-4,1.2c-2.3,4.1-5.2,7.7-7.1,12
		c0,15,0.1,30.1,0.1,45.1c0,46.4,0,92.8,0,139.2c0,2,0.4,4.1-0.7,6c0,0-0.1,0.1-0.1,0.1c0,0,0.1,0,0.1,0c0,0,0-0.1,0-0.1
		c0.6,0.5,0.7,1,0,1.5h0c0,0,0,0,0,0c0,2.3,0,4.6,0,6.8c0.9,1.2,2.2,1.4,3.6,1.4c48.9,0,97.8,0,146.8,0c1.2,0,2.6,0.4,3-1.4
		c0-1.9,0-3.7,0-5.6l0,0C651.9,260.5,651.9,260,651.9,259.6z M637.2,61c0.9,0,1.1,0.6,1.1,1.3c-0.1,0.7-0.5,1.3-1.3,1.2
		c-0.8-0.1-1.2-0.6-1.1-1.4C635.9,61.4,636.4,61,637.2,61z M506.2,61.1c0.8-0.1,1.2,0.3,1.3,1.1c0,0.8-0.3,1.4-1.1,1.4
		c-0.7,0-1.2-0.5-1.2-1.3C505.2,61.6,505.5,61.1,506.2,61.1z M513.3,61c0.8,0.1,1.1,0.5,1.2,1.3c-0.2,0.8-0.5,1.3-1.3,1.2
		c-0.7-0.1-1.2-0.6-1.1-1.4C512.1,61.4,512.5,61,513.3,61z M506.4,70.4c-0.8,0-1.2-0.5-1.2-1.3c0-0.6,0.2-1.1,0.9-1.2
		c0.8-0.1,1.2,0.3,1.4,1.1C507.5,69.7,507.2,70.3,506.4,70.4z M519.4,191.1c-2.3,0-3.7-1.4-3.8-3.6c-0.1-2.3,1.3-3.9,3.7-4
		c2.5-0.1,3.7,1.3,3.9,3.8C523.1,189.7,521.9,191.1,519.4,191.1z M529.6,191.2c-2.6-0.3-3.9-1.7-3.8-4.1c0.1-2.3,1.4-3.6,3.7-3.5
		c2.4,0,3.9,1.5,3.8,3.8C533.3,189.8,531.7,191,529.6,191.2z M539.3,191.1c-2.3-0.2-3.7-1.7-3.6-4c0.1-2.3,1.6-3.7,4.1-3.6
		c2.3,0.1,3.6,1.6,3.5,3.8C543.3,189.7,541.9,191.1,539.3,191.1z M630,239.8c0,2.5-1,3.4-3.5,3.4c-13.3-0.1-26.7-0.1-40,0
		c-2.4,0-3.2-0.8-3.1-3.1c0.1-9.4,0.1-18.7,0-28.1c0-2.4,0.8-3.1,3.2-3.1c6.7,0.1,13.5,0,20.2,0c6.6,0,13.2,0.1,19.8,0
		c2.4,0,3.5,0.5,3.4,3.2C629.9,221.3,629.9,230.6,630,239.8z M641.1,170.5c0,2.8-0.7,3.7-3.6,3.6c-11.2-0.2-22.4-0.1-33.6-0.1
		c-1.3,0.8-2.8,0.7-4.3,0.7c-15.9,0-31.8-0.1-47.7,0.1c-3.2,0-4.6-0.8-4.2-4.1c0.2-1.8,0.1-3.6,0.1-5.5c-1.4,1.8-0.6,4-0.6,5.9
		c0,2.1-0.3,3-2.8,3c-10.8-0.1-21.7-0.1-32.5,0c-1.9,0-2.6-0.5-2.5-2.5c0.1-30.4,0-60.9,0-91.3c0-3,1.9-5.3,3.3-7.7l0,0
		c0.2-1,0.6-2,1.4-2.7c2.4-5.9,2.4-5.9,8.5-5.9c35,0,70,0.1,105-0.1c4.9,0,7.4,1.7,8.7,6v0l0,0c0.6,0.9,1.2,1.9,1.8,2.8l0,0
		c2.4,3,3.1,6.3,3.1,10.2C641,112,641,141.2,641.1,170.5z M644.1,70.4c-0.8,0-1.2-0.5-1.2-1.3c0-0.6,0.2-1.1,0.9-1.2
		c0.8-0.1,1.3,0.2,1.4,1C645.2,69.7,644.8,70.2,644.1,70.4z M643.9,63.5c-0.8-0.2-1.2-0.7-1.1-1.4c0.1-0.8,0.5-1.2,1.3-1.1
		c0.7,0.1,0.9,0.5,0.9,1.1C645.1,63,644.6,63.4,643.9,63.5z"/>
	<path class="st19" d="M671.7,245.9L671.7,245.9c0.1,0,0.1-0.1,0.1-0.1c-0.1-0.2-0.1-0.4-0.2-0.6c-9.3-0.1-8.8,1.5-8.8-8.6
		c0-10.9-0.7-9,9.3-9.2c2.4,0,4.8,0,7.1,0c0-0.2,0-0.4,0-0.7c-4.7,0-9.3,0-14,0c-1.3,0-2.9,0-2.9,1.6c-0.2,5.6-0.6,11.1,0.2,16.7
		c0,0.3,0.6,0.6,1,0.9l0,0c0,0,0,0,0,0C666.2,245.9,669,245.9,671.7,245.9z"/>
	<path class="st20" d="M668,254.8c1.9,0.3,2.9-0.6,3.7-2.1c-0.2-0.7-0.5-1.3-0.7-2c-1.3-0.3-2.7-0.5-4-0.8c-0.2,0.7-0.5,1.4-0.7,2.2
		C666.1,253.5,666.4,254.5,668,254.8z"/>
	<path class="st21" d="M499.9,44.3c-6.9,3.3-11.3,8.5-12.6,16.1C489.5,53.5,493.8,48.2,499.9,44.3z"/>
	<path class="st22" d="M680.7,228.1c1.1,5.5,1.1,11,0,16.4c-2.4,1.4-4.9,0.4-7.4,0.6c0,0,0,0,0,0c-0.1,0.2,0,0.4,0,0.6l0,0v0
		c2.5,0,5,0.1,7.4,0.1v0l0,0c1.5-0.8,1.4-2.2,1.4-3.5c0-3.7,0-7.4,0-11.1c0-1.1-0.4-2.3,0.6-3.2c-0.8-1.2-2.1-1.4-3.4-1.4
		c0,0.2,0,0.4,0,0.7C679.7,227.6,680.2,227.9,680.7,228.1z"/>
	<path class="st23" d="M682,231.3c0,3.7,0,7.4,0,11.1c0,1.4,0.1,2.7-1.4,3.5l0,0c0,0.2,0,0.5,0,0.7c0,0,0,0,0,0c0,0,0,0,0,0
		c2.1-0.1,2.1-1.7,2.1-3.2c0-5.1,0-10.2,0-15.3c0,0,0,0,0,0C681.7,229.1,682.1,230.3,682,231.3z"/>
	<path class="st24" d="M672.4,254.2C672.4,254.2,672.4,254.2,672.4,254.2L672.4,254.2c0-0.3,0-0.5,0.1-0.8c-0.2-0.2-0.5-0.5-0.7-0.7
		c-0.8,1.4-1.9,2.4-3.7,2.1c-1.6-0.3-1.9-1.3-1.8-2.7c-2.2,0.3-0.3,1.8-0.8,2.6C668,257,670.2,256.4,672.4,254.2z"/>
	<path class="st25" d="M671,250.7c1.7,0.2,1.2,1.7,1.4,2.7c0,0,0,0,0,0c0.2,0,0.4,0,0.6,0.1c0.1-2.3,0.2-4.5,0.3-6.8
		c0-0.3,0-0.6-0.1-0.8l0,0c-0.1-0.2-0.1-0.4,0-0.6c0,0,0,0,0,0l-0.2,0.1c-0.4,0.2-0.8,0.5-1.2,0.7c0,0,0,0,0,0l0,0h0v0l-0.1,0l0,0
		c0,0.3-0.1,0.5-0.1,0.8c0,0,0,0,0,0l0,0c0.8,1.4,0.8,2.6-0.6,3.5C670.9,250.4,670.9,250.6,671,250.7z"/>
	<path class="st26" d="M492.2,60.4c1.1-2.1,2.2-4.1,3.3-6.2C493.2,55.6,492.5,57.9,492.2,60.4z"/>
	<path class="st27" d="M671.7,245.9c-2.7,0-5.5,0-8.2,0c0,0,0,0,0,0c2.6,1.5,5.4,0.4,8.1,0.8c0,0,0,0,0,0
		C671.7,246.4,671.7,246.2,671.7,245.9z"/>
	<path class="st27" d="M680.7,246L680.7,246c-2.5,0-5-0.1-7.4-0.1v0c0,0.3,0,0.6,0.1,0.8c2.4,0,4.9,0,7.3,0c0,0,0,0,0,0
		C680.6,246.4,680.7,246.2,680.7,246z"/>
	<path class="st28" d="M661.5,56.4c0.5,1.5,1,3.1,1.5,4.6C663.3,59.2,663,57.6,661.5,56.4z"/>
	<path class="st29" d="M657.5,50.2c0.9,1.2,1.8,2.3,2.7,3.5C660.2,51.9,659.3,50.7,657.5,50.2z"/>
	<path class="st30" d="M653.2,46L653.2,46C653.2,46,653.3,45.9,653.2,46c-0.6-1.2-1.6-1.7-3.5-2C651.1,45.3,652.1,45.8,653.2,46
		L653.2,46z"/>
	<path class="st31" d="M671,250.8C671,250.8,671,250.7,671,250.8C671,250.7,671,250.7,671,250.8c-0.1-0.2-0.1-0.4,0-0.5
		c-1.3-0.9-2.6-1.6-4-0.2C668.3,250.3,669.7,250.5,671,250.8z"/>
	<path class="st32" d="M653.2,46c0.6,0.8,1,1.8,2.3,1.7C655.2,46.4,654.3,46.1,653.2,46C653.3,45.9,653.2,46,653.2,46L653.2,46z"/>
	<path class="st33" d="M672.4,253.4C672.4,253.4,672.4,253.4,672.4,253.4C672.4,253.5,672.4,253.5,672.4,253.4
		C672.4,253.5,672.4,253.5,672.4,253.4c0,0.3,0,0.5-0.1,0.8v0c0,0.4,0,0.8,0,1.2c0,0,0,0,0,0c0,0,0,0,0,0c0,0.5,0,1,0.1,1.6l0,0
		c0,0,0,0,0,0c0.7-0.6,0.7-1.5,0.8-2.3c-0.1-0.4-0.1-0.8-0.2-1.2C672.8,253.4,672.6,253.4,672.4,253.4z"/>
	<path class="st34" d="M657.6,58.2c0.4,0.2,0.4-0.3,0.4-1.2c0,0-0.4-0.2-0.8-0.3c0,0-0.3,0.4-0.3,0.5
		C657.1,57.6,657.3,58.1,657.6,58.2z"/>
	<path class="st35" d="M666.3,261c-2.1,0-4.1,0-6.2,0c0,0.2,0,0.5,0,0.7c0,0,0,0,0,0c0,0,0,0,0,0c2.1,0.9,4.1,0.9,6.2,0
		C666.3,261.5,666.3,261.3,666.3,261z"/>
	<path class="st36" d="M672.4,255.4C672.4,255.4,672.4,255.4,672.4,255.4c-1.3,2.7-2.9,5-6.1,5.7c0,0,0,0,0,0c0,0.2,0,0.5,0,0.7
		c3-0.4,5.1-1.9,6.2-4.8l0,0C672.4,256.4,672.4,255.9,672.4,255.4z"/>
	<path class="st37" d="M660.1,261c-1.6-0.2-3.2-0.5-4.8-0.7v0c1.1,2,3.1,1.2,4.8,1.4c0,0,0,0,0,0C660.1,261.5,660.1,261.3,660.1,261
		z"/>
	<path class="st38" d="M651.9,259.6c0,0.5,0,0.9,0,1.4l0,0c1,0,2,0.3,2.8-0.6l0,0C653.9,259.4,652.9,259.7,651.9,259.6z"/>
	<path class="st39" d="M547.9,164.5c-8.3,0-16.5-0.1-24.8-0.1c-0.8,0-1.6,0-2.4,0c-1,0-2.2,0.1-2.2-1.4c0-1.3,1.1-1.2,2-1.3
		c0.8,0,1.6,0,2.4,0c17.1,0,34.3,0,51.4,0c0.5-1.5-1-1.4-1.9-1.7c-2.9-0.8-6-1.1-8.8-2.4c-6.7,1.7-13.1,0.9-19.3-2
		c-1.3-0.7-2.8-0.9-4.2-1.7c1.8-1,4-1.4,4.8-3.5c0.1-1.3-0.2-2.5-1.1-3.4c-2.1-0.9-4.3-1.2-6.6-1.5c-0.3-0.1-0.7,0-1-0.1
		c0.3,0,0.7,0.1,1,0c2.4-0.4,5-0.3,6.9-2.1c0.6-1,1-2.1,0.7-3.4c-0.6-1.2-1.8-1.6-2.9-2.2c-2.5-1.2-0.3-1.4,0.4-1.8
		c1.9-0.8,3.7-1.5,5.6-2.2c5.1-2.5,10.5-1.9,15.8-0.8c1.2-0.4,2.5-0.5,3.6-1c3-1.4,6.6-0.5,9.4-2.3c0,0,0-0.1,0-0.1c0,0-0.1,0-0.1,0
		c-1.7-2.8-3.3-5.7-5-8.6c-0.9-1.5-1.3-3.3-3.8-3.2c-1.9,0.1-1.5-1.7-1.5-2.8c0-5.2,0-10.5,0.1-15.7c-0.5-0.5-1-0.4-1.4,0.1
		c-0.3,0.4-0.5,0.8-0.9,1c-0.3,0.2-0.8,0-1.3,0c0.5-3.6-4.8-0.9-4.5-4.2c0.1-0.8,0.5-1.8-0.4-2c-2.6-0.5-1.2-1.5-1.2-3.1
		c-0.1-2.5,1.1-3.9,1.6-5.8c0.5-1.9-0.5-3.4,2.4-2.2c0.5,0.2,1.1,0.1,1.2-0.3c1.6-5.8,3-0.7,4.4,0.1c1.2-1.7,2.1-3.8,4.7-3.4
		c0-2.3,0-4.6,0.1-6.8c-19.4,0-38.9,0-58.3-0.1v0l0,0c-1.5,2.4-3.3,4.7-3.3,7.7c0,30.4,0,60.9,0,91.3c0,2,0.7,2.5,2.5,2.5
		c10.8-0.1,21.7-0.1,32.5,0c2.4,0,2.7-0.9,2.8-3c0-2-0.8-4.1,0.6-5.9C547.9,164.9,547.9,164.7,547.9,164.5z"/>
	<path class="st39" d="M571.1,72.7C571.1,72.7,571.1,72.7,571.1,72.7c0,0,0.1,0,0.1,0C571.2,72.7,571.1,72.7,571.1,72.7L571.1,72.7
		C571.1,72.7,571.1,72.7,571.1,72.7z"/>
	<path class="st39" d="M638,72.7c-18,0-35.9,0-53.9,0c0,0,0,0,0,0c0,6.4,0.1,12.8-0.1,19.2c-0.1,2.8,0.9,3.8,3.5,3.4
		c1.3,2,0.6,4.2,0.6,6.3c0.1,4.1-0.2,8.2,0.1,12.3c0.1,1.6-0.1,2.8-0.8,3.5c0,0,0,0,0,0c0,0,0,0,0,0c-0.7,0.7-1.7,0.9-3.4,0.6
		c0,0,0,0,0,0c-0.1,2.4-2,4-2.8,6.1c-1.1,1.8-2.2,3.7-3.3,5.5c0,0-0.1,0-0.1,0c0.1,0.2,0.3,0.5,0.7,0.7c5.3,1.2,10.7,0.4,16,0.5
		c3.4,0.1,6.6,0.4,9.6,1.9c4.7,2,7.9,5.7,10.7,9.7c0.8,1.1,1.4,2.4,0.7,3.8c-0.3,0.9-0.9,1.6-1.4,2.3c-2.7,3.7-5.8,7-10.3,8.6
		c-2.3,1.1-4.9,1.7-7.3,2.8c-0.8,0.3-2.2,0.7-1.5,1.8c11.1,0,22.3,0,33.4,0c0.8,0,1.6,0,2.4,0c0.9,0,1.6,0.2,1.7,1.3
		c0,1.1-0.7,1.3-1.6,1.4c-0.8,0-1.6,0-2.4,0c-7.1,0-14.1,0-21.2,0c-1.2,0-2.5-0.3-3.6,0.7c0,2.9,0.1,5.9,0.1,8.8
		c11.2,0,22.4-0.1,33.6,0.1c2.9,0,3.6-0.8,3.6-3.6c-0.1-29.2-0.1-58.4,0-87.6C641.1,79,640.4,75.6,638,72.7z"/>
	<path class="st40" d="M626.6,208.9c-6.6,0.1-13.2,0-19.8,0c-6.7,0-13.5,0.1-20.2,0c-2.3,0-3.2,0.7-3.2,3.1c0.1,9.4,0.1,18.7,0,28.1
		c0,2.4,0.7,3.2,3.1,3.1c13.3-0.1,26.7-0.1,40,0c2.5,0,3.5-0.8,3.5-3.4c-0.1-9.2-0.1-18.5,0-27.7C630,209.4,629,208.9,626.6,208.9z"
		/>
	<path class="st41" d="M636.3,69.9c-1.3-4.3-3.8-6-8.7-6c-35,0.2-70,0.1-105,0.1c-6.1,0-6.1,0-8.5,5.9
		C554.9,69.9,595.6,69.9,636.3,69.9L636.3,69.9z"/>
	<path class="st42" d="M599.5,164.5c-17.2,0-34.4,0-51.6,0l0,0c0,0,0,0,0,0c0,0.2-0.1,0.4-0.2,0.6c0,1.8,0.2,3.7-0.1,5.5
		c-0.4,3.4,1,4.2,4.2,4.1c15.9-0.2,31.8-0.1,47.7-0.1c1.5,0,3,0.1,4.3-0.7c0-2.9-0.1-5.9-0.1-8.8C602.5,164.3,601,164.5,599.5,164.5
		z"/>
	<path class="st43" d="M571.1,72.6c0,0,0.1,0,0.1,0c4.3-1.2,8.6-1.1,12.9,0l0,0c0,0,0,0,0,0c18,0,35.9,0,53.9,0l0,0
		c-0.6-0.9-1.2-1.9-1.8-2.8l0,0c-40.7,0-81.4,0-122.1,0c-0.8,0.7-1.2,1.7-1.4,2.7v0C532.2,72.6,551.6,72.6,571.1,72.6z"/>
	<path class="st44" d="M539.8,183.6c-2.5-0.1-4,1.3-4.1,3.6c-0.1,2.3,1.3,3.8,3.6,4c2.6,0,4-1.5,4.1-3.8
		C543.4,185.2,542.1,183.7,539.8,183.6z"/>
	<path class="st45" d="M519.4,183.6c-2.4,0.1-3.8,1.6-3.7,4c0.1,2.2,1.5,3.6,3.8,3.6c2.4,0,3.7-1.4,3.8-3.7
		C523.1,184.9,521.9,183.5,519.4,183.6z"/>
	<path class="st46" d="M529.5,183.5c-2.3,0-3.6,1.2-3.7,3.5c-0.1,2.4,1.2,3.8,3.8,4.1c2.2-0.2,3.7-1.4,3.8-3.8
		C533.4,185,531.9,183.6,529.5,183.5z"/>
	<path class="st47" d="M513.2,63.5c0.8,0.1,1.2-0.5,1.3-1.2c0-0.7-0.4-1.2-1.2-1.3c-0.8-0.1-1.2,0.4-1.3,1.1
		C512,62.9,512.5,63.4,513.2,63.5z"/>
	<path class="st48" d="M637,63.5c0.8,0.1,1.2-0.5,1.3-1.2c0-0.7-0.3-1.3-1.1-1.3c-0.8,0-1.3,0.4-1.3,1.1
		C635.8,62.9,636.2,63.4,637,63.5z"/>
	<path class="st49" d="M506.1,67.9c-0.7,0.1-0.9,0.6-0.9,1.2c0,0.8,0.4,1.3,1.2,1.3c0.8,0,1.1-0.6,1.1-1.4
		C507.4,68.2,506.9,67.8,506.1,67.9z"/>
	<path class="st50" d="M643.7,67.9c-0.6,0.1-0.9,0.6-0.9,1.2c0,0.7,0.4,1.2,1.2,1.3c0.8-0.2,1.1-0.7,1-1.5
		C645,68.1,644.5,67.8,643.7,67.9z"/>
	<path class="st50" d="M644.2,61c-0.8-0.1-1.3,0.3-1.3,1.1c-0.1,0.7,0.3,1.2,1.1,1.4c0.7-0.2,1.2-0.5,1.2-1.4
		C645.1,61.6,644.8,61.1,644.2,61z"/>
	<path class="st50" d="M506.4,63.5c0.8,0,1.1-0.6,1.1-1.4c-0.1-0.8-0.5-1.2-1.3-1.1c-0.7,0.1-0.9,0.5-0.9,1.1
		C505.2,63,505.7,63.5,506.4,63.5z"/>
	<path class="st51" d="M680.7,244.6c0-5.5,0-11,0-16.4c-0.5-0.2-0.9-0.5-1.4-0.7c-2.4,0-4.8,0-7.1,0c-10,0.2-9.3-1.8-9.3,9.2
		c0,10.1-0.6,8.6,8.8,8.6c0-0.4,0-0.8,0-1.3c-1-0.8-0.8-2.2-1.4-3.2c0,0,0,0,0,0c-1.3-2-3.4-3.9-1.4-6.7c1.6-2.4,3.8-2.4,5.8-0.8
		c2.1,1.7,2,3.9,0.4,6c-1.1,1.4-1.5,3-2.1,4.6c0,0.5,0,1,0,1.5l0.2-0.1c0,0,0,0,0,0C675.7,245,678.3,245.9,680.7,244.6z"/>
	<path class="st52" d="M673,243.8c-0.5,0-0.9,0.1-1.4,0.1c0,0.4,0,0.8,0,1.3c0.1,0.2,0.1,0.4,0.2,0.6c0,0.1,0,0.1,0,0.2v0h0v0
		c0.4-0.2,0.8-0.5,1.2-0.7C673,244.8,673,244.3,673,243.8z"/>
	<path class="st53" d="M671,250.7C671,250.7,671,250.7,671,250.7C671,250.7,671,250.8,671,250.7c0.2,0.7,0.4,1.3,0.7,2
		c0.2,0.2,0.5,0.5,0.7,0.7c0,0,0,0,0,0c0,0,0,0,0,0C672.2,252.4,672.8,251,671,250.7z"/>
	<path class="st54" d="M680.7,228.1c0,5.5,0,11,0,16.4C681.8,239.1,681.8,233.6,680.7,228.1z"/>
	<path class="st42" d="M569.6,100c0-0.5,0-0.9,0-1.4c3.2,0.3,3.5-4,6.8-3.9c7.1,0.1,7.1,0,7.1-7.1c0-4.3-0.1-8.6,0-12.9
		c0-1.6-0.5-2.2-2.1-2.2c-3.4,0.1-6.8,0.1-10.2,0.2c0,0,0,0,0,0l0-0.1c0,2.3,0,4.6-0.1,6.8c0.6,0.7,1.8-0.8,2.2,0.6
		c1.7,0.2,3.2,0.5,2.7,2.8c0.5,0.1,1.6,0.3,1.2,0.6c-1.3,1.2,0.6,2.5-0.2,3.6c0,0,0,0,0,0c-1.4,0.7-1.2,3.6-3.7,2.8
		c0.1,0.7-0.1,1.2-0.8,1.4c-1.5,4.5-4.3,6.4-8.3,5.4c-3.4-0.8-5.3-3.9-4.7-7.5c0.5-3,2.4-4.7,5.4-5.3c0.1-0.9,0.7-1,1.4-1
		c0,0,0,0,0,0c-1.5-0.8-2.8-5.8-4.4-0.1c-0.1,0.4-0.7,0.5-1.2,0.3c-2.9-1.2-1.9,0.3-2.4,2.2c-0.5,1.9-1.7,3.3-1.6,5.8
		c0.1,1.6-1.4,2.6,1.2,3.1c1,0.2,0.5,1.1,0.4,2c-0.3,3.2,5,0.5,4.5,4.2c0.4,0,0.9,0.2,1.3,0c0.4-0.2,0.6-0.7,0.9-1
		c0.4-0.6,0.9-0.6,1.4-0.1C567.2,100.3,568.2,101.1,569.6,100z"/>
	<path class="st55" d="M592.3,160.9c-1.7,0.4-3.4,0.7-5.2,0.3c-1.6-0.2-3.2-0.4-4.7-0.3c-2.6,0.1-5.5-1.3-7.8,0.9
		c-0.1,0-0.1,0-0.2,0c-17.1,0-34.3,0-51.4,0c-0.8,0-1.6,0-2.4,0c-0.9,0-2,0-2,1.3c-0.1,1.5,1.2,1.4,2.2,1.4c0.8,0,1.6,0,2.4,0
		c8.3,0,16.5,0.1,24.8,0.1c0,0,0.1,0,0.1,0l0,0c17.2,0,34.4,0,51.6,0c1.5,0,3-0.3,4.3,0.6c1-1,2.3-0.7,3.6-0.7c7.1,0,14.1,0,21.2,0
		c0.8,0,1.6,0,2.4,0c0.9,0,1.6-0.3,1.6-1.4c0-1.1-0.8-1.3-1.7-1.3c-0.8,0-1.6,0-2.4,0c-11.1,0-22.3,0-33.4,0c0,0-0.1,0-0.1,0
		C594.3,160.8,593.3,160.8,592.3,160.9z M592.3,161.7c-1.5,1.1-3.2,0.5-4.8,0.6C589,161.2,590.7,161.9,592.3,161.7z"/>
	<path class="st43" d="M569.6,100c-1.4,1.1-2.4,0.3-3.3-0.8c0,5.2-0.1,10.5-0.1,15.7c0,1.2-0.4,2.9,1.5,2.8c2.5-0.1,2.9,1.7,3.8,3.2
		c1.6,2.9,3.3,5.7,5,8.6c0,0,0.1,0,0.1,0c0.4,0,0.8,0,1.2,0c0,0,0.1,0,0.1,0c1.1-1.8,2.2-3.7,3.3-5.5c-3-1.8-6-3.6-9-5.3
		c0-0.3,0.1-0.5,0.1-0.8c3.9,0,7.8,0,11.7,0c0,0,0,0,0,0c0,0,0,0,0,0c1.6,0.3,2.7,0.1,3.4-0.6C581.2,111.1,575.4,105.6,569.6,100z"
		/>
	<path class="st43" d="M588.3,113.7c-0.3-4.1,0-8.2-0.1-12.3c-0.1-2.1,0.7-4.3-0.6-6.3c0,7,0,14.1,0,22
		C588.1,116.5,588.4,115.4,588.3,113.7z"/>
	<path class="st56" d="M564.8,83.9c1.5,1,0.2,2.1,0,3.1c0,0,0,0,0,0h0c1.8,1.2,3.3,2.8,4.2,4.8c1.1-0.5,2-2,3.4-0.4c0,0,0,0,0,0
		c0.7-0.2,0.9-0.7,0.8-1.4h0c0-0.3-0.1-0.7-0.1-1l0,0c-3.9,0.4-5.9-0.7-6.1-3.4c-0.2-2.8,1.6-4.4,5.3-4.5c0,0,0,0,0,0
		c0.3-0.3,0.6-0.6,0.9-0.9c-0.4-1.3-1.6,0.1-2.2-0.6c-2.7-0.4-3.6,1.7-4.7,3.4c0,0,0,0,0,0C565.5,82.9,564.9,83,564.8,83.9z"/>
	<path class="st57" d="M571.2,72.7c0,0-0.1,0-0.1,0c0,0,0,0,0,0c3.4,0,6.8,0,10.2-0.2c1.6-0.1,2.2,0.6,2.1,2.2
		c-0.1,4.3,0,8.6,0,12.9c0,7.1,0,7.2-7.1,7.1c-3.2-0.1-3.6,4.2-6.8,3.9c0,0.5,0,0.9,0,1.4c5.8,5.6,11.6,11.2,17.9,17.2c0,0,0,0,0,0
		c0,0,0,0,0,0c0-7.9,0-15,0-22c-2.6,0.3-3.6-0.6-3.5-3.4c0.2-6.4,0.1-12.8,0.1-19.2l0,0C579.8,71.5,575.5,71.4,571.2,72.7z"/>
	<path class="st58" d="M572.4,117.8c0,0.3-0.1,0.5-0.1,0.8c3,1.8,6,3.6,9,5.3c0.9-2.1,2.8-3.7,2.8-6.1c0,0,0,0,0,0
		C580.2,117.8,576.3,117.8,572.4,117.8z"/>
	<path class="st59" d="M673,243.8c0.5-1.6,1-3.2,2.1-4.6c1.6-2.1,1.8-4.3-0.4-6c-2-1.6-4.2-1.5-5.8,0.8c2.2,1.9,1.4,4.3,1.4,6.7
		c0,0,0,0,0,0c0,0,0,0,0,0c0.5,1,0.4,2.4,1.4,3.2C672.1,243.9,672.6,243.9,673,243.8z"/>
	<path class="st60" d="M668.9,234.1c-2.1,2.7,0.1,4.6,1.4,6.7c0,0,0,0,0,0C670.3,238.4,671.1,236,668.9,234.1z"/>
	<path class="st61" d="M569,91.8c-0.7,2-2.3,2.4-4.1,2.1c-1.7-0.3-2.6-1.5-2.7-3.1c-0.2-1.9,0.6-3.3,2.6-3.8c0,0,0,0,0,0
		c0.2-1,1.5-2.1,0-3.1c-3,0.6-4.9,2.3-5.4,5.3c-0.6,3.6,1.3,6.7,4.7,7.5c4,1,6.8-0.9,8.3-5.4c0,0,0,0,0,0
		C571,89.7,570.1,91.2,569,91.8z"/>
	<path class="st62" d="M575.1,83.7C575.1,83.7,575.1,83.7,575.1,83.7c-0.1,1.1-0.1,2.2-0.2,3.2c0,0,0,0,0,0c0.7,0,1.3,0.1,2,0.1l0,0
		c0,0,0,0,0,0c0.8-1.1-1.1-2.3,0.2-3.6c0.3-0.3-0.7-0.6-1.2-0.6C575.6,83.1,575.4,83.4,575.1,83.7z"/>
	<path class="st63" d="M572.3,81c1.2,0.7,2.1,1.5,2.8,2.7c0.3-0.3,0.5-0.5,0.8-0.8c0.5-2.3-1.1-2.6-2.7-2.8
		C572.9,80.4,572.6,80.7,572.3,81z"/>
	<path class="st64" d="M574.9,86.9C574.9,86.9,574.9,86.9,574.9,86.9c-0.6,0.7-1.2,1.3-1.8,2c0,0.3,0.1,0.7,0.1,1h0
		c2.5,0.7,2.3-2.1,3.7-2.8l0,0C576.2,87,575.6,87,574.9,86.9z"/>
	<path class="st39" d="M592.3,161.7c-1.6,0.2-3.3-0.5-4.8,0.6C589.1,162.2,590.8,162.8,592.3,161.7z"/>
	<path class="st65" d="M574.9,86.9C574.9,86.9,574.9,86.9,574.9,86.9c0.1-1.1,0.1-2.2,0.2-3.3c0,0,0,0,0,0c-0.7-1.1-1.7-2-2.8-2.7
		c0,0,0,0,0,0c-3.7,0.1-5.5,1.7-5.3,4.5c0.2,2.7,2.2,3.8,6.1,3.4l0,0C573.7,88.3,574.3,87.6,574.9,86.9z M569,85.1
		c0-1.3,0.7-2.1,2.1-2.1c1.2,0,1.9,0.6,2,1.8c0.1,1.4-0.5,2.1-1.9,2.3C569.9,87.1,569,86.5,569,85.1z"/>
	<path class="st66" d="M562.2,90.8c0.1,1.6,1,2.8,2.7,3.1c1.8,0.3,3.4-0.1,4.1-2.1c-0.9-2-2.4-3.6-4.2-4.8h0
		C562.8,87.5,562.1,88.9,562.2,90.8z"/>
	<path class="st67" d="M573.1,84.8c-0.1-1.2-0.8-1.8-2-1.8c-1.4,0-2.1,0.8-2.1,2.1c0,1.4,0.9,2,2.2,2
		C572.6,87,573.2,86.2,573.1,84.8z"/>
	<path class="st68" d="M772.2,66.9"/>
</g>
</svg>
